# xmcd
#
# Track frame offsets:
#	150
#	17537
#	55090
#	89840
#	123019
#
# Disc length: 2231 seconds
#
# Revision: 1
# Processed by: cddbd v1.5.2PL0 Copyright (c) Steve Scherf et al.
# Submitted via: audiograbber 1.83.01
#
DISCID=3508b505
DTITLE=Grateful Dead - 77-05-09 War Memorial Auditorium, Buffalo NY
DYEAR=1900
DGENRE=
TTITLE0=Sunrise
TTITLE1=The Music Never Stopped
TTITLE2=Bertha
TTITLE3=Good Lovin
TTITLE4=Ship Of Fools
EXTD=
EXTT0=
EXTT1=
EXTT2=
EXTT3=
EXTT4=
PLAYORDER=
